# xmcd
#
# Track frame offsets:
#	183
#	8650
#	23798
#	54870
#	85475
#	111480
#	137160
#	166535
#	190783
#	209315
#	223453
#
# Disc length: 3090 seconds
#
# Revision: 1
# Processed by: cddbd v1.5.1PL0 Copyright (c) Steve Scherf et al.
# Submitted via: audiograbber 1.83.01
#
DISCID=940c100b
DTITLE=Ray Brown - Pierre Boussaguet - Dado Moroni - Two bass hits
DYEAR=1989
DGENRE=Jazz
TTITLE0=Pitter-Panther Patter
TTITLE1=Swingin' till the girls come home
TTITLE2=Emily (the americanizatron of Emily)
TTITLE3=Blue Monk
TTITLE4=Watch what happens
TTITLE5=Blues for sugar daddy Queen
TTITLE6=My funny Valentine
TTITLE7=D.M.F
TTITLE8=F.S.R
TTITLE9=Sweet Raymond Brown
TTITLE10=Pitter Panther Patter
EXTD=
EXTT0=
EXTT1=
EXTT2=
EXTT3=
EXTT4=
EXTT5=
EXTT6=
EXTT7=
EXTT8=
EXTT9=
EXTT10=
PLAYORDER=
